<svg width="20" height="20" viewBox="0 0 20 20" fill="none" xmlns="http://www.w3.org/2000/svg">
<path d="M10 20C15.5228 20 20 15.5228 20 10C20 4.47715 15.5228 0 10 0C4.47715 0 0 4.47715 0 10C0 15.5228 4.47715 20 10 20Z" fill="#273B7A"/>
<path d="M19.7748 12.1154L13.6607 6.00122L8.5633 6.4081L5.95947 8.78505L6.29361 13.9556L12.0828 19.7817C15.9229 18.968 18.9485 15.9508 19.7748 12.1154Z" fill="#121149"/>
<path d="M10.2183 9.08051V10.9967H13.2151C12.7901 12.3684 11.5117 13.3648 10.0003 13.3648C8.14182 13.3648 6.63514 11.8582 6.63514 9.99961C6.63506 8.14117 8.14166 6.63449 10.0002 6.63449C10.8687 6.63449 11.6578 6.96641 12.2549 7.5066L13.661 6.00121C12.6964 5.11766 11.4114 4.57812 10.0002 4.57812C7.00596 4.57812 4.57861 7.00539 4.57861 9.99969C4.57861 12.994 7.00596 15.4212 10.0002 15.4212C12.9945 15.4212 15.4218 12.9939 15.4218 9.99969C15.4218 9.68602 15.3928 9.37941 15.3413 9.08051H10.2183Z" fill="#4285F4"/>
<path d="M10 6.63457C10.8686 6.63457 11.6577 6.96648 12.2547 7.50668L13.6608 6.00129C12.6963 5.11766 11.4113 4.57812 10 4.57812C7.92355 4.57812 6.12066 5.74594 5.20996 7.46008L6.86449 8.78512C7.35207 7.52769 8.57035 6.63457 10 6.63457Z" fill="#EA4335"/>
<path d="M6.6351 10.0005C6.6351 9.57168 6.71838 9.16313 6.86467 8.78598L5.21014 7.46094C4.8076 8.21863 4.57861 9.0827 4.57861 10.0005C4.57861 10.9226 4.80951 11.7906 5.21553 12.5508L6.86025 11.203C6.71697 10.829 6.6351 10.4248 6.6351 10.0005Z" fill="#FBBC05"/>
<path d="M11.8714 12.7955C11.3362 13.1546 10.6936 13.3659 10.0006 13.3659C8.56629 13.3659 7.34492 12.467 6.86055 11.2031L5.21582 12.5509C6.1284 14.2593 7.92836 15.4223 10.0005 15.4223C11.3462 15.4223 12.5764 14.9309 13.5242 14.1192L11.8714 12.7955Z" fill="#34A853"/>
<path d="M15.4217 9.99999C15.4217 9.68632 15.3928 9.37972 15.3412 9.08081H10.2183V10.997H13.215C12.9849 11.7398 12.5031 12.3707 11.871 12.7948L13.5238 14.1185C14.685 13.1241 15.4217 11.6485 15.4217 9.99999Z" fill="#4285F4"/>
</svg>
