<svg width="20" height="20" viewBox="0 0 20 20" fill="none" xmlns="http://www.w3.org/2000/svg">
<path d="M16.4227 19.6576C12.1452 20.1141 7.85477 20.1141 3.57727 19.6576C1.87164 19.4756 0.524445 18.1284 0.342407 16.4226C-0.114136 12.1451 -0.114136 7.85477 0.342407 3.57727C0.524445 1.87164 1.87164 0.524445 3.57727 0.342407C7.85477 -0.114136 12.1451 -0.114136 16.4226 0.342407C18.1284 0.524445 19.4756 1.87164 19.6576 3.57727C20.1141 7.85477 20.1141 12.1451 19.6576 16.4226C19.4756 18.1284 18.1285 19.4756 16.4227 19.6576Z" fill="url(#paint0_linear)"/>
<path d="M18.5699 4.30058C18.4085 2.78706 17.2131 1.59154 15.6994 1.42995C11.9037 1.02498 8.0966 1.02498 4.30083 1.42995C2.78731 1.59154 1.59178 2.78706 1.43019 4.30058C1.02522 8.09636 1.02522 11.9034 1.43019 15.6991C1.59178 17.2127 2.78731 18.4082 4.30083 18.5697C8.0966 18.9748 11.9037 18.9748 15.6993 18.5697C17.213 18.4082 18.4085 17.2127 18.5699 15.6991C18.9751 11.9034 18.9751 8.09636 18.5699 4.30058Z" fill="url(#paint1_linear)"/>
<path d="M0.299805 16.0081C0.313538 16.1463 0.327728 16.2845 0.342529 16.4228C0.524567 18.1284 1.87177 19.4756 3.57755 19.6577C7.85504 20.1142 12.1454 20.1142 16.4229 19.6577C18.1286 19.4756 19.4757 18.1284 19.6577 16.4228C19.6725 16.2845 19.6867 16.1463 19.7006 16.0081H0.299805Z" fill="url(#paint2_linear)"/>
<path d="M19.9959 9.29712L15.8445 5.14581C15.3792 5.41177 14.9692 5.55933 14.6604 5.64111C14.4867 5.68765 14.345 5.71298 14.243 5.72687C13.7749 5.24698 13.1212 4.94897 12.3976 4.94897C10.974 4.94897 9.81967 6.10315 9.81967 7.5271C9.81967 7.57852 9.82104 7.62933 9.8244 7.67999C9.83127 7.80344 9.84698 7.92474 9.87125 8.04269C9.27692 8.03384 7.34515 7.87515 5.50281 6.29587C5.50266 6.29587 5.50266 6.29572 5.50266 6.29572H5.5025L4.63367 5.42673C4.63367 5.42673 3.61438 7.20575 5.11295 8.55569C5.17871 8.62909 5.25104 8.70157 5.33023 8.77283C5.33649 8.77985 5.34305 8.78671 5.3493 8.79373C5.15262 8.78046 4.56104 8.72156 4.21863 8.47971C4.21863 8.47971 4.14981 9.56705 5.05573 10.3675L5.78723 11.1053C5.56445 11.1237 5.31802 11.1193 5.14667 11.0443C5.14667 11.0443 5.29834 11.6883 5.88458 12.2038L6.90936 13.2339C6.29459 13.592 5.21838 14.0402 3.80176 13.9257L10.0183 19.9999C12.1543 19.9993 14.2902 19.8852 16.4229 19.6575C18.1287 19.4755 19.4759 18.1283 19.6579 16.4227C19.9111 14.0499 20.0235 11.6732 19.9959 9.29712Z" fill="url(#paint3_linear)"/>
<path d="M16.1984 6.14709C15.7559 6.37857 15.0894 6.48553 14.8685 6.51636C14.8666 6.50568 14.8648 6.49545 14.863 6.48523C15.6142 6.0206 15.8441 5.14581 15.8441 5.14581C15.3789 5.41177 14.9689 5.55933 14.66 5.64111C14.4864 5.68765 14.3446 5.71283 14.2427 5.72687C13.7746 5.24683 13.1209 4.94897 12.3973 4.94897C10.9737 4.94897 9.81934 6.103 9.81934 7.5271C9.81934 7.57837 9.82071 7.62933 9.82407 7.67984C9.83093 7.80328 9.84665 7.92459 9.87091 8.04254C9.18182 8.03232 6.69449 7.82098 4.63333 5.42673C4.63333 5.42673 3.48557 7.42929 5.41519 8.79724C5.41519 8.79724 4.63333 8.77283 4.21829 8.47971C4.21829 8.47971 4.09622 10.4093 6.31866 11.0197C6.31866 11.0197 5.53726 11.2153 5.14618 11.0443C5.14618 11.0443 5.53711 12.705 7.491 12.8274C7.491 12.8274 6.08963 14.1104 3.80127 13.9257C4.92676 14.6383 6.26114 15.0508 7.6918 15.0508C11.7145 15.0508 14.9756 11.7898 14.9756 7.76712C14.9756 7.71692 14.9751 7.66672 14.9741 7.61652C14.9751 7.58676 14.9756 7.55716 14.9756 7.5271C14.9756 7.5062 14.9751 7.48529 14.9748 7.46439C15.7185 6.96878 16.1984 6.14709 16.1984 6.14709Z" fill="white"/>
<defs>
<linearGradient id="paint0_linear" x1="6.64039" y1="2.81196" x2="11.699" y2="13.635" gradientUnits="userSpaceOnUse">
<stop stop-color="#00C3FF"/>
<stop offset="1" stop-color="#00B0ED"/>
</linearGradient>
<linearGradient id="paint1_linear" x1="14.2299" y1="12.2689" x2="-14.8275" y2="-3.31855" gradientUnits="userSpaceOnUse">
<stop stop-color="#00B0ED" stop-opacity="0"/>
<stop offset="1" stop-color="#00A2CE"/>
</linearGradient>
<linearGradient id="paint2_linear" x1="10.0001" y1="17.0853" x2="10.0001" y2="19.706" gradientUnits="userSpaceOnUse">
<stop stop-color="#00B0ED" stop-opacity="0"/>
<stop offset="1" stop-color="#00A2CE"/>
</linearGradient>
<linearGradient id="paint3_linear" x1="19.1182" y1="18.8309" x2="9.34759" y2="9.06029" gradientUnits="userSpaceOnUse">
<stop stop-color="#00B0ED" stop-opacity="0"/>
<stop offset="1" stop-color="#00A2CE"/>
</linearGradient>
</defs>
</svg>
