<svg width="10" height="16" viewBox="0 0 10 16" fill="none" xmlns="http://www.w3.org/2000/svg">
<path d="M4.42885 6.51469C5.02854 6.51469 5.51469 6.02854 5.51469 5.42885C5.51469 4.82916 5.02854 4.34302 4.42885 4.34302C3.82916 4.34302 3.34302 4.82916 3.34302 5.42885C3.34302 6.02854 3.82916 6.51469 4.42885 6.51469Z" fill="#FC1200"/>
<path d="M4.42918 0C1.43567 0 -1 2.32946 -1 5.19165C-1 6.55472 -0.378698 8.36738 0.8466 10.5794C1.83064 12.3555 2.96907 13.9615 3.56119 14.7606C3.66124 14.8971 3.79207 15.0082 3.94305 15.0847C4.09403 15.1612 4.26092 15.2011 4.4302 15.2011C4.59947 15.2011 4.76637 15.1612 4.91735 15.0847C5.06833 15.0082 5.19915 14.8971 5.29921 14.7606C5.89031 13.9615 7.02976 12.3555 8.0138 10.5794C9.23706 8.36806 9.85836 6.5554 9.85836 5.19165C9.85836 2.32946 7.42269 0 4.42918 0ZM4.42918 7.60085C3.99966 7.60085 3.57979 7.47348 3.22266 7.23486C2.86553 6.99623 2.58719 6.65706 2.42282 6.26024C2.25845 5.86342 2.21544 5.42677 2.29924 5.00551C2.38303 4.58424 2.58986 4.19729 2.89358 3.89358C3.19729 3.58986 3.58425 3.38303 4.00551 3.29924C4.42677 3.21544 4.86342 3.25845 5.26024 3.42282C5.65706 3.58718 5.99623 3.86553 6.23486 4.22266C6.47349 4.57979 6.60085 4.99966 6.60085 5.42918C6.60022 6.00495 6.37122 6.55696 5.96409 6.96409C5.55696 7.37122 5.00495 7.60022 4.42918 7.60085Z" fill="#FC1200"/>
</svg>
