<svg width="22" height="20" viewBox="0 0 22 20" fill="none" xmlns="http://www.w3.org/2000/svg">
<path d="M10.3829 0.463526C10.5325 0.00287056 11.1843 0.00287008 11.3339 0.463525L13.4403 6.9463C13.5072 7.15232 13.6992 7.2918 13.9158 7.2918H20.7322C21.2166 7.2918 21.418 7.9116 21.0261 8.1963L15.5115 12.2029C15.3363 12.3302 15.263 12.5559 15.3299 12.7619L17.4363 19.2447C17.586 19.7053 17.0587 20.0884 16.6669 19.8037L11.1523 15.7971C10.977 15.6698 10.7397 15.6698 10.5645 15.7971L5.04993 19.8037C4.65807 20.0884 4.13083 19.7053 4.2805 19.2447L6.38689 12.7619C6.45382 12.5559 6.38049 12.3302 6.20525 12.2029L0.69067 8.1963C0.298813 7.9116 0.500201 7.2918 0.984562 7.2918H7.80096C8.01757 7.2918 8.20955 7.15232 8.27649 6.9463L10.3829 0.463526Z" fill="#FFC700"/>
</svg>
